<?xml version="1.0" encoding="UTF-8" standalone="no"?>
<!-- Created with Inkscape (http://www.inkscape.org/) -->

<svg
   xmlns:dc="http://purl.org/dc/elements/1.1/"
   xmlns:cc="http://creativecommons.org/ns#"
   xmlns:rdf="http://www.w3.org/1999/02/22-rdf-syntax-ns#"
   xmlns:svg="http://www.w3.org/2000/svg"
   xmlns="http://www.w3.org/2000/svg"
   xmlns:xlink="http://www.w3.org/1999/xlink"
   xmlns:sodipodi="http://sodipodi.sourceforge.net/DTD/sodipodi-0.dtd"
   xmlns:inkscape="http://www.inkscape.org/namespaces/inkscape"
   width="140.26273mm"
   height="140.26273mm"
   viewBox="0 0 140.26273 140.26273"
   version="1.1"
   id="svg8"
   inkscape:version="0.92.2 5c3e80d, 2017-08-06"
   sodipodi:docname="Notmail_logo.svg"
   inkscape:export-filename="/home/velours/mailbot.png"
   inkscape:export-xdpi="96"
   inkscape:export-ydpi="96">
  <defs
     id="defs2">
    <linearGradient
       y2="44.285713"
       x2="178.57944"
       y1="40.007999"
       x1="160.008"
       id="b"
       gradientUnits="userSpaceOnUse">
      <stop
         id="stop5053"
         offset="0"
         stop-color="#37aee2" />
      <stop
         id="stop5055"
         offset="1"
         stop-color="#1e96c8" />
    </linearGradient>
    <linearGradient
       y2="174.70815"
       x2="146.52715"
       y1="131.02763"
       x1="123.64119"
       id="w"
       gradientTransform="scale(1.0919081,0.91582798)"
       gradientUnits="userSpaceOnUse">
      <stop
         id="stop5058"
         offset="0"
         stop-color="#eff7fc" />
      <stop
         id="stop5060"
         offset="1"
         stop-color="#fff" />
    </linearGradient>
    <linearGradient
       y2="174.70815"
       x2="146.52715"
       y1="131.02763"
       x1="123.64119"
       id="w-6"
       gradientTransform="matrix(0.20594253,0,0,0.17273242,83.467549,110.52955)"
       gradientUnits="userSpaceOnUse">
      <stop
         id="stop5058-2"
         offset="0"
         stop-color="#eff7fc" />
      <stop
         id="stop5060-6"
         offset="1"
         stop-color="#fff" />
    </linearGradient>
    <linearGradient
       inkscape:collect="always"
       xlink:href="#w-6"
       id="linearGradient5394"
       gradientUnits="userSpaceOnUse"
       gradientTransform="matrix(0.20594253,0,0,0.17273242,83.582738,99.207825)"
       x1="123.64119"
       y1="131.02763"
       x2="146.52715"
       y2="174.70815" />
  </defs>
  <sodipodi:namedview
     id="base"
     pagecolor="#ffffff"
     bordercolor="#666666"
     borderopacity="1.0"
     inkscape:pageopacity="0.0"
     inkscape:pageshadow="2"
     inkscape:zoom="1.1712684"
     inkscape:cx="178.4841"
     inkscape:cy="218.59744"
     inkscape:document-units="mm"
     inkscape:current-layer="layer1"
     showgrid="false"
     showguides="true"
     inkscape:guide-bbox="true"
     inkscape:measure-start="353.095,400.26"
     inkscape:measure-end="402.599,395.053"
     inkscape:lockguides="false"
     inkscape:window-width="1392"
     inkscape:window-height="1019"
     inkscape:window-x="0"
     inkscape:window-y="0"
     inkscape:window-maximized="0"
     fit-margin-top="0"
     fit-margin-left="0"
     fit-margin-right="0"
     fit-margin-bottom="0" />
  <metadata
     id="metadata5">
    <rdf:RDF>
      <cc:Work
         rdf:about="">
        <dc:format>image/svg+xml</dc:format>
        <dc:type
           rdf:resource="http://purl.org/dc/dcmitype/StillImage" />
        <dc:title></dc:title>
      </cc:Work>
    </rdf:RDF>
  </metadata>
  <g
     inkscape:groupmode="layer"
     id="layer3"
     inkscape:label="circle"
     style="display:inline"
     sodipodi:insensitive="true"
     transform="translate(-34.868637,-78.368637)">
    <circle
       style="fill:#30a7da;fill-opacity:1;stroke:none;stroke-width:2.11661386;stroke-linecap:butt;stroke-linejoin:miter;stroke-miterlimit:4;stroke-dasharray:none;stroke-opacity:1;paint-order:fill markers stroke"
       id="path5225"
       cx="105"
       cy="148.5"
       r="70.131363" />
  </g>
  <g
     inkscape:label="BOT"
     inkscape:groupmode="layer"
     id="layer1"
     style="display:inline"
     sodipodi:insensitive="true"
     transform="translate(-34.868637,-78.368637)">
    <flowRoot
       xml:space="preserve"
       id="flowRoot5216"
       style="font-style:normal;font-weight:normal;font-size:40px;line-height:1.25;font-family:sans-serif;letter-spacing:0px;word-spacing:0px;fill:#000000;fill-opacity:1;stroke:none"
       transform="scale(0.26458333)"><flowRegion
         id="flowRegion5218"><rect
           id="rect5220"
           width="178.57143"
           height="72.85714"
           x="307.85715"
           y="581.09113" /></flowRegion><flowPara
         id="flowPara5222" /></flowRoot>    <g
       id="g880">
      <rect
         ry="0"
         rx="0"
         y="137.12372"
         x="76.388092"
         height="28.3482"
         width="57.452385"
         id="rect5106"
         style="display:inline;fill:#b1bec4;fill-opacity:1;stroke:none;stroke-width:1.5;stroke-linecap:butt;stroke-linejoin:miter;stroke-miterlimit:4;stroke-dasharray:none;stroke-opacity:1;paint-order:fill markers stroke" />
      <rect
         ry="0.56349331"
         y="183.76945"
         x="84.453514"
         height="7.3476572"
         width="40.57185"
         id="rect5144"
         style="display:inline;fill:#5f8899;fill-opacity:1;stroke:none;stroke-width:1.31339252;stroke-linecap:butt;stroke-linejoin:miter;stroke-miterlimit:4;stroke-dasharray:none;stroke-opacity:1;paint-order:fill markers stroke" />
      <path
         inkscape:connector-curvature="0"
         id="rect4515"
         d="m 99.235234,104.43761 c -16.287403,0 -29.399753,13.11235 -29.399753,29.39976 v 6.08128 0.60048 15.03164 h 0.01085 c 0.223059,8.01422 4.66263,14.36812 10.145633,14.36812 h 19.24327 11.760006 19.24327 c 5.48301,0 9.92258,-6.3539 10.14563,-14.36812 h 0.0109 v -15.03164 -0.60048 -6.08128 c 0,-16.28741 -13.11235,-29.39976 -29.39976,-29.39976 z m -2.405536,34.50953 h 16.571082 c 10.36471,0 18.70842,2.26496 18.70842,5.07824 v 14.96704 c 0,2.81328 -8.34371,5.07825 -18.70842,5.07825 H 96.829698 c -10.364713,0 -18.708936,-2.26497 -18.708936,-5.07825 v -14.96704 c 0,-2.81328 8.344223,-5.07824 18.708936,-5.07824 z"
         style="display:inline;fill:#374354;fill-opacity:1;stroke:none;stroke-width:1.5;stroke-linecap:butt;stroke-linejoin:round;stroke-miterlimit:4;stroke-dasharray:none;stroke-opacity:1;paint-order:markers fill stroke" />
      <path
         id="rect4572"
         d="m 65.061611,109.28021 v 41.15976 h 1.742529 1.465027 1.60352 v -5.14491 h -1.60352 v -36.01485 z"
         style="display:inline;fill:#0e3140;fill-opacity:1;stroke:none;stroke-width:0.15599997;stroke-linecap:butt;stroke-linejoin:round;stroke-miterlimit:4;stroke-dasharray:none;stroke-opacity:1;paint-order:markers fill stroke"
         inkscape:connector-curvature="0" />
      <path
         id="rect4572-7"
         d="m 141.73135,109.01305 v 36.01485 h -1.40302 v 5.1449 h 1.40302 1.7539 1.45314 v -41.15976 z"
         style="display:inline;fill:#0e3140;fill-opacity:1;stroke:none;stroke-width:0.15599999;stroke-linecap:butt;stroke-linejoin:round;stroke-miterlimit:4;stroke-dasharray:none;stroke-opacity:1;paint-order:markers fill stroke"
         inkscape:connector-curvature="0" />
      <path
         inkscape:connector-curvature="0"
         id="rect4696"
         d="m 88.699568,173.32245 c 10.943747,0 21.887492,0 32.831242,0 3.38299,2.9026 6.76599,5.8052 10.14898,8.70779 -17.70973,0 -35.419468,0 -53.129201,0 3.382993,-2.9026 6.765986,-5.80519 10.148979,-8.70779 z"
         style="display:inline;fill:#ffffff;fill-opacity:1;stroke:#374354;stroke-width:1.72363591;stroke-linecap:butt;stroke-linejoin:miter;stroke-miterlimit:4;stroke-dasharray:none;stroke-opacity:1;paint-order:fill markers stroke" />
      <path
         inkscape:connector-curvature="0"
         id="rect4696-3"
         d="m 87.196004,176.22064 c 11.948465,0 23.896936,0 35.845396,0 3.69358,2.9026 7.38717,5.80518 11.08075,8.70778 -19.33563,0 -38.671256,0 -58.006879,0 3.693578,-2.9026 7.387156,-5.80519 11.080733,-8.70778 z"
         style="display:inline;fill:#ffffff;fill-opacity:1;stroke:none;stroke-width:1.80102038;stroke-linecap:butt;stroke-linejoin:miter;stroke-miterlimit:4;stroke-dasharray:none;stroke-opacity:1;paint-order:fill markers stroke" />
      <path
         inkscape:connector-curvature="0"
         id="rect4682"
         d="m 76.222498,182.85125 c 0,3.23705 0,6.47409 0,9.71113 19.261793,0 38.523592,0 57.785382,0 0,-3.23704 0,-6.47408 0,-9.71113 -5.96731,0 -11.93461,0 -17.90192,0 -1.97582,6.00538 -9.96572,6.87513 -15.29813,5.55671 -3.209677,-0.42967 -5.790411,-3.2102 -7.042708,-5.55671 -5.847542,0 -11.695083,0 -17.542624,0 z"
         style="display:inline;fill:#374354;fill-opacity:1;stroke:none;stroke-width:0.11205066;stroke-linecap:butt;stroke-linejoin:round;stroke-miterlimit:4;stroke-dasharray:none;stroke-opacity:1;paint-order:markers fill stroke" />
      <path
         id="path5067"
         d="m 102.06632,132.21422 c -0.73324,0 -0.60864,-0.27686 -0.86153,-0.97501 l -2.156202,-7.0963 16.597502,-9.84646"
         inkscape:connector-curvature="0"
         style="display:inline;fill:#c8daea;stroke-width:0.18860793" />
      <path
         id="path5069"
         d="m 102.06632,132.21422 c 0.56582,0 0.81582,-0.25878 1.13164,-0.56583 l 3.01773,-2.93437 -3.76424,-2.26988"
         inkscape:connector-curvature="0"
         style="display:inline;fill:#a9c9dd;fill-opacity:1;stroke:#a9c9dd;stroke-width:0.18860793;stroke-opacity:1" />
      <path
         id="path5071"
         d="m 102.45108,126.4447 9.12108,6.73876 c 1.04083,0.5743 1.79204,0.27696 2.0513,-0.96633 l 3.71274,-17.49584 c 0.38012,-1.52398 -0.58093,-2.21519 -1.57665,-1.76314 l -21.801188,8.40644 c -1.488135,0.59689 -1.479459,1.42712 -0.271256,1.79706 l 5.594677,1.74619 12.952277,-8.17143 c 0.61144,-0.37078 1.17263,-0.17144 0.71203,0.23733"
         inkscape:connector-curvature="0"
         style="display:inline;fill:url(#linearGradient5394);stroke-width:0.18860793" />
      <g
         transform="translate(2.0043255,1.907444)"
         id="g5361"
         style="display:inline">
        <path
           style="fill:#0e3140;fill-opacity:1;stroke:none;stroke-width:0.78666931;stroke-linecap:butt;stroke-linejoin:miter;stroke-miterlimit:4;stroke-dasharray:none;stroke-opacity:1;paint-order:fill markers stroke"
           d="m 91.456662,143.56692 -5.715166,9.83377 1.387597,0.004 4.322962,-7.43855 4.280417,7.46294 1.38299,0.004 z"
           id="path5314"
           inkscape:connector-curvature="0" />
        <path
           inkscape:connector-curvature="0"
           style="display:inline;fill:#0e3140;fill-opacity:1;stroke:none;stroke-width:0.78666931;stroke-linecap:butt;stroke-linejoin:miter;stroke-miterlimit:4;stroke-dasharray:none;stroke-opacity:1;paint-order:fill markers stroke"
           d="m 114.82143,143.56692 -5.71517,9.83377 1.3876,0.004 4.32296,-7.43856 4.28042,7.46295 1.38299,0.004 z"
           id="path5314-1" />
      </g>
      <path
         sodipodi:nodetypes="ccccc"
         inkscape:connector-curvature="0"
         id="rect5187"
         d="m 94.226744,174.12961 15.352246,3.28862 h -5.49576 l -15.072719,-3.27725 z"
         style="fill:#5f8899;fill-opacity:1;stroke:none;stroke-width:1.5;stroke-linecap:butt;stroke-linejoin:miter;stroke-miterlimit:4;stroke-dasharray:none;stroke-opacity:1;paint-order:fill markers stroke" />
      <path
         sodipodi:nodetypes="cccccc"
         inkscape:connector-curvature="0"
         id="rect5187-5"
         d="m 104.08323,177.41823 -15.35225,5.4859 5.495762,-0.0513 15.352248,-5.4346 -5.41329,-0.70592 z"
         style="fill:#5f8899;fill-opacity:1;stroke:none;stroke-width:1.5;stroke-linecap:butt;stroke-linejoin:miter;stroke-miterlimit:4;stroke-dasharray:none;stroke-opacity:1;paint-order:fill markers stroke" />
      <path
         sodipodi:nodetypes="cccccc"
         inkscape:connector-curvature="0"
         id="rect5253"
         d="m 93.309885,182.82633 0.842495,-0.2374 0.07436,0.26392 -0.396727,0.11594 -0.06497,-0.11779 z"
         style="fill:#5f8899;fill-opacity:1;stroke:none;stroke-width:1.12043071;stroke-linecap:butt;stroke-linejoin:miter;stroke-miterlimit:4;stroke-dasharray:none;stroke-opacity:1;paint-order:fill markers stroke" />
    </g>
  </g>
</svg>
